<svg width="36" height="62" viewBox="0 0 36 62" fill="none" xmlns="http://www.w3.org/2000/svg">
<path d="M13.4667 3.98667C13.4667 4.10519 13.4193 4.21185 13.3245 4.30667C13.2534 4.37778 13.1585 4.41333 13.04 4.41333H5.64447C5.52595 4.41333 5.46669 4.47259 5.46669 4.59111V10.2089C5.46669 10.3274 5.52595 10.3867 5.64447 10.3867H9.87558C9.9941 10.3867 10.0889 10.4341 10.16 10.5289C10.2548 10.6 10.3022 10.6948 10.3022 10.8133V14.2622C10.3022 14.3807 10.2548 14.4874 10.16 14.5822C10.0889 14.6533 9.9941 14.6889 9.87558 14.6889H5.64447C5.52595 14.6889 5.46669 14.7481 5.46669 14.8667V24.5733C5.46669 24.6919 5.41929 24.7985 5.32447 24.8933C5.25336 24.9644 5.15855 25 5.04003 25H0.880027C0.761509 25 0.654842 24.9644 0.560027 24.8933C0.488916 24.7985 0.45336 24.6919 0.45336 24.5733V0.537778C0.45336 0.41926 0.488916 0.324445 0.560027 0.253333C0.654842 0.158518 0.761509 0.111111 0.880027 0.111111H13.04C13.1585 0.111111 13.2534 0.158518 13.3245 0.253333C13.4193 0.324445 13.4667 0.41926 13.4667 0.537778V3.98667ZM15.8453 25C15.7268 25 15.6201 24.9644 15.5253 24.8933C15.4542 24.7985 15.4186 24.6919 15.4186 24.5733V0.537778C15.4186 0.41926 15.4542 0.324445 15.5253 0.253333C15.6201 0.158518 15.7268 0.111111 15.8453 0.111111H20.0053C20.1238 0.111111 20.2186 0.158518 20.2897 0.253333C20.3846 0.324445 20.432 0.41926 20.432 0.537778V20.52C20.432 20.6385 20.4912 20.6978 20.6097 20.6978H28.0764C28.1949 20.6978 28.2897 20.7452 28.3609 20.84C28.4557 20.9111 28.5031 21.0059 28.5031 21.1244V24.5733C28.5031 24.6919 28.4557 24.7985 28.3609 24.8933C28.2897 24.9644 28.1949 25 28.0764 25H15.8453ZM33.1836 25.1422C32.3777 25.1422 31.7022 24.8815 31.157 24.36C30.6355 23.8148 30.3747 23.1393 30.3747 22.3333C30.3747 21.5037 30.6355 20.8281 31.157 20.3067C31.6785 19.7852 32.354 19.5244 33.1836 19.5244C34.0133 19.5244 34.6888 19.7852 35.2103 20.3067C35.7318 20.8281 35.9925 21.5037 35.9925 22.3333C35.9925 23.1393 35.7199 23.8148 35.1747 24.36C34.6533 24.8815 33.9896 25.1422 33.1836 25.1422ZM7.42225 61.2844C5.28892 61.2844 3.5704 60.6207 2.26669 59.2933C0.986694 57.9422 0.346694 56.1526 0.346694 53.9244V36.5378C0.346694 36.4193 0.382249 36.3244 0.45336 36.2533C0.548175 36.1585 0.654842 36.1111 0.77336 36.1111H4.93336C5.05188 36.1111 5.14669 36.1585 5.2178 36.2533C5.31262 36.3244 5.36003 36.4193 5.36003 36.5378V54.4222C5.36003 55.1807 5.54966 55.797 5.92892 56.2711C6.30818 56.7452 6.80595 56.9822 7.42225 56.9822C8.03855 56.9822 8.52447 56.7452 8.88003 56.2711C9.25929 55.797 9.44892 55.1807 9.44892 54.4222V36.5378C9.44892 36.4193 9.48447 36.3244 9.55558 36.2533C9.6504 36.1585 9.75706 36.1111 9.87558 36.1111H14.0356C14.1541 36.1111 14.2489 36.1585 14.32 36.2533C14.4148 36.3244 14.4622 36.4193 14.4622 36.5378V53.9244C14.4622 56.1526 13.8104 57.9422 12.5067 59.2933C11.2267 60.6207 9.53188 61.2844 7.42225 61.2844ZM17.1472 61C16.9813 61 16.8747 60.9526 16.8272 60.8578C16.7798 60.763 16.7798 60.6444 16.8272 60.5022L21.6628 48.6622C21.6865 48.5911 21.6865 48.52 21.6628 48.4489L16.8272 36.6089C16.8035 36.5615 16.7917 36.4904 16.7917 36.3956C16.7917 36.2059 16.9102 36.1111 17.1472 36.1111H21.4139C21.651 36.1111 21.805 36.2296 21.8761 36.4667L24.2584 43.2933C24.2821 43.3644 24.3176 43.4 24.365 43.4C24.4124 43.4 24.448 43.3644 24.4717 43.2933L26.8539 36.4667C26.925 36.2296 27.0791 36.1111 27.3161 36.1111H31.5472C31.7132 36.1111 31.8198 36.1585 31.8672 36.2533C31.9147 36.3481 31.9147 36.4667 31.8672 36.6089L27.0317 48.4489C27.008 48.52 27.008 48.5911 27.0317 48.6622L31.8672 60.5022C31.891 60.5496 31.9028 60.6207 31.9028 60.7156C31.9028 60.9052 31.7843 61 31.5472 61H27.3161C27.0791 61 26.925 60.8815 26.8539 60.6444L24.4717 53.8533C24.448 53.7822 24.4124 53.7467 24.365 53.7467C24.3176 53.7467 24.2821 53.7822 24.2584 53.8533L21.8406 60.6444C21.7695 60.8815 21.6154 61 21.3784 61H17.1472Z" fill="#E5E5E5"/>
</svg>
